<svg id="Capa_1" enable-background="new 0 0 512 512" height="512" viewBox="0 0 512 512" width="512" xmlns="http://www.w3.org/2000/svg" xmlns:xlink="http://www.w3.org/1999/xlink"><linearGradient id="SVGID_1_" gradientUnits="userSpaceOnUse" x1="256" x2="256" y1="512" y2="0"><stop offset="0" stop-color="#a93aff"/><stop offset="1" stop-color="#ff81ff"/></linearGradient><g><g><g><path d="m346 241c8.284 0 15-6.716 15-15s-6.716-15-15-15-15 6.716-15 15 6.716 15 15 15zm90-241h-330c-24.813 0-45 20.187-45 45v422c0 24.813 20.187 45 45 45h330c8.284 0 15-6.716 15-15v-482c0-8.284-6.716-15-15-15zm-315 482h-15c-8.271 0-15-6.729-15-15v-422c0-8.271 6.729-15 15-15h15zm300 0h-270v-452h210v76c0 8.284 6.716 15 15 15s15-6.716 15-15v-76h30zm-69.559-184.864c-7.13 2.6-13.817 3.864-20.441 3.864-33.084 0-60-26.916-60-60 0-26.47 17.216-49.431 42.839-57.136 6.411-1.928 10.769-7.87 10.68-14.564-.09-6.694-4.604-12.518-11.063-14.275-10.099-2.746-18.823-4.025-27.456-4.025-57.897 0-105 47.103-105 105s47.103 105 105 105c32.175 0 62.203-14.768 82.386-40.518 4.132-5.271 4.269-12.644.334-18.064-3.935-5.422-10.988-7.576-17.279-5.282zm-65.441 33.864c-41.355 0-75-33.645-75-75 0-32.349 20.585-59.98 49.345-70.48-12.635 15.914-19.345 35.135-19.345 55.48 0 41.439 28.15 76.427 66.333 86.843-6.842 2.075-14.011 3.157-21.333 3.157z" fill="url(#SVGID_1_)"/></g></g></g></svg>